<svg xmlns="http://www.w3.org/2000/svg" width="21" height="21" viewBox="0 0 21 21">
    <g fill="none" fill-rule="nonzero">
        <path fill="#3C5A99" d="M19.79 20.944c.637 0 1.154-.517 1.154-1.154V1.201c0-.637-.517-1.153-1.154-1.153H1.201C.564.048.048.564.048 1.2v18.59c0 .636.516 1.153 1.153 1.153h18.59z"/>
        <path fill="#FFF" d="M14.466 20.944v-8.092h2.716l.406-3.154h-3.122V7.685c0-.913.253-1.536 1.562-1.536h1.67V3.328a22.324 22.324 0 0 0-2.433-.124c-2.408 0-4.056 1.47-4.056 4.168v2.326H8.486v3.154h2.723v8.092h3.257z"/>
    </g>
</svg>
