<svg height="60" viewBox="90 0 60 60" width="60" xmlns="http://www.w3.org/2000/svg">
  <g fill="#fff" fill-rule="evenodd">
    <path d="m115 21.512h-.429c-.428 0-.857.44-.857.878v8.78c0 .44.429.879.857.879h.429c.429 0 .857-.44.857-.878v-8.78c0-.586-.428-.879-.857-.879zm9.714 0c-.285 0-.571.147-.714.293a1.132 1.132 0 0 0 -.286.732v5.122s-4.285-5.708-4.428-5.854c-.143-.293-.572-.44-.857-.44-.572 0-1 .586-1 1.172v8.341c0 .585.428 1.17 1.142 1.17.286 0 .572-.146.715-.292s.285-.439.285-.732v-5.122l4.429 5.854c.143.146.429.293.714.293.572 0 1.143-.586 1.143-1.171v-8.341c0-.586-.428-1.025-1.143-1.025zm-12.428 8.634a1.078 1.078 0 0 0 -.715-.292h-3.285v-7.317c0-.586-.429-1.171-1.143-1.171-.286 0-.572.146-.714.293a1.132 1.132 0 0 0 -.286.731v8.342c0 .585.428 1.17 1.143 1.17h4.285a1.14 1.14 0 0 0 1.143-1.17c-.143-.147-.285-.44-.428-.586zm20.571-2.341a1.14 1.14 0 0 0 1.143-1.17c0-.294-.143-.586-.286-.733a1.078 1.078 0 0 0 -.714-.292h-3.286v-1.903h3.143a1.14 1.14 0 0 0 1.143-1.17c0-.586-.429-1.171-1.143-1.171h-4.286a1.14 1.14 0 0 0 -1.142 1.17v8.342c0 .585.428 1.17 1.142 1.17h4.286a1.14 1.14 0 0 0 1.143-1.17c0-.293-.143-.585-.286-.732a1.078 1.078 0 0 0 -.714-.292h-3.286v-2.05h3.143z"/>
    <path d="m142.429 0h-45c-3.429 0-6.429 2.927-6.429 6.585v45.952c0 3.658 2.857 6.585 6.429 6.585h44.857c3.571 0 6.428-2.927 6.428-6.585v-45.952c0-3.658-2.857-6.585-6.285-6.585zm-1.429 27.22c0 .292 0 .731-.143 1.317-.286 1.61-.857 3.22-1.571 4.683-.429.731-2.286 3.365-2.857 4.097-3.143 3.805-8.286 8.342-17.143 12.585-.857.44-1.715-.292-1.715-1.17l.429-4.098c0-.585-.429-1.17-1-1.317-10.286-1.024-18.143-8.341-18.143-16.976 0-9.512 9.429-17.268 21.143-17.268 11.286 0 20.571 7.317 21.143 16.39-.143.293-.143 1.171-.143 1.757z" fill-rule="nonzero"/>
  </g>
</svg>
