<svg xmlns="http://www.w3.org/2000/svg" width="21" height="21" viewBox="0 0 21 21">
    <g fill="none" fill-rule="evenodd">
        <path fill="#069" fill-rule="nonzero" d="M.069 1.54C.069.717.752.05 1.596.05h17.61c.843 0 1.527.667 1.527 1.49v17.815c0 .823-.684 1.49-1.527 1.49H1.596c-.844 0-1.527-.667-1.527-1.49V1.54z"/>
        <path fill="#FFF" d="M6.333 17.458v-9.39H3.21v9.39h3.122zM4.772 6.785c1.088 0 1.766-.72 1.766-1.622-.02-.921-.678-1.622-1.745-1.622-1.068 0-1.766.7-1.766 1.622 0 .901.677 1.622 1.725 1.622h.02zM8.06 17.458h3.12v-5.244c0-.28.02-.561.103-.762.226-.56.74-1.141 1.602-1.141 1.13 0 1.58.86 1.58 2.123v5.024h3.122v-5.385c0-2.884-1.54-4.226-3.594-4.226-1.683 0-2.422.941-2.833 1.582h.02V8.067H8.06c.04.882 0 9.39 0 9.39z"/>
    </g>
</svg>
