<svg height="60" viewBox="180 0 60 60" width="60" xmlns="http://www.w3.org/2000/svg">
  <g fill="#fff" fill-rule="evenodd">
    <path d="m234.95 0h-50.049c-2.822.746-4.901 3.433-4.901 6.418v46.866c0 3.73 2.97 6.716 6.683 6.716h46.634c3.713 0 6.683-2.985 6.683-6.716v-46.866c0-2.985-2.228-5.672-5.05-6.418zm-7.425 21.642v1.045c0 14.328-11.584 25.97-25.842 25.97-5.05 0-9.802-1.493-13.812-4.03 7.872 1.194 13.367-3.88 13.367-3.88-6.98-.598-8.317-6.419-8.317-6.419 2.525.448 4.01-.149 4.01-.149-7.872-1.79-7.129-9.104-7.129-9.104 1.782 1.044 3.861 1.194 3.861 1.194-6.98-6.12-2.524-12.09-2.524-12.09 7.277 8.806 17.821 9.403 18.564 9.403-.149-.597-.297-1.343-.297-2.09 0-5.074 4.01-9.104 9.06-9.104 2.673 0 4.9 1.045 6.683 2.836l1.336-.448a57.284 57.284 0 0 0 4.456-1.79c-.446 2.686-3.713 4.924-4.01 5.074 2.524-.299 5.05-1.344 5.198-1.344-.891 1.94-4.159 4.478-4.604 4.926z" fill-rule="nonzero"/>
  </g>
</svg>
