<svg xmlns="http://www.w3.org/2000/svg" width="559" height="238" viewBox="0 0 559 238">
    <g fill="none" fill-rule="evenodd" transform="translate(.738 -3)">
        <ellipse cx="44.997" cy="195.928" fill="#666" rx="44.173" ry="44.179"/>
        <ellipse cx="147.269" cy="195.928" fill="#666" rx="44.173" ry="44.179"/>
        <ellipse cx="254.782" cy="195.928" fill="#666" rx="44.173" ry="44.179"/>
        <ellipse cx="147.269" cy="72.601" fill="#FFF" rx="44.173" ry="44.179"/>
        <ellipse cx="44.997" cy="72.601" fill="#FFF" rx="44.173" ry="44.179"/>
        <text fill="#666" font-family="PingFangTC-Regular, PingFang TC" font-size="16">
            <tspan x="412" y="17">同意</tspan>
        </text>
        <text fill="#666" font-family="PingFangTC-Regular, PingFang TC" font-size="16">
            <tspan x="490" y="17">不同意</tspan>
        </text>
        <g fill="#2ED3E9">
            <path d="M20.514 83.758h7.188v-21.19h-6.065v-4.119c3.37-.599 5.69-1.497 7.787-2.845h4.941v28.154h6.29v5.392H20.438v-5.392h.075z"/>
            <path fill-rule="nonzero" d="M68.955 80.464h-3.968v8.686h-6.214v-8.686h-14.3v-4.568l12.503-20.292h8.011v19.768h3.968v5.092zm-10.257-5.092v-6.814c0-1.947.15-5.017.3-6.964h-.15a122.349 122.349 0 0 1-2.696 5.466l-5.24 8.312h7.786z"/>
        </g>
        <path fill="#FFF" fill-rule="nonzero" d="M44.697 117.08C20.065 117.08 0 97.012 0 72.377s20.065-44.703 44.697-44.703 44.698 20.068 44.698 44.703-20.066 44.703-44.698 44.703zm0-87.609c-23.659 0-42.9 19.244-42.9 42.906s19.241 42.906 42.9 42.906c23.66 0 42.9-19.244 42.9-42.906s-19.24-42.906-42.9-42.906z"/>
        <g fill="#2ED3E9">
            <path d="M123.385 83.459h7.188v-21.19h-6.065v-4.12c3.37-.598 5.69-1.497 7.787-2.845h4.941V83.46h6.29v5.391H123.31V83.46h.074zM147.568 84.882l3.07-4.268c1.872 1.872 4.268 3.37 7.412 3.37 3.519 0 5.915-2.247 5.915-6.141s-2.246-6.065-5.69-6.065c-2.022 0-3.07.524-5.017 1.797l-3.07-2.022.9-16.249h17.968v5.541h-12.204l-.599 7.114c1.348-.6 2.471-.973 4.043-.973 5.615 0 10.332 3.37 10.332 10.632 0 7.488-5.54 11.756-11.754 11.756-5.241.075-8.76-2.021-11.306-4.492z"/>
        </g>
        <path fill="#FFF" fill-rule="nonzero" d="M147.044 117.08c-24.632 0-44.697-20.068-44.697-44.703s20.065-44.703 44.697-44.703 44.698 20.068 44.698 44.703-20.066 44.703-44.698 44.703zm0-87.609c-23.659 0-42.9 19.244-42.9 42.906s19.241 42.906 42.9 42.906c23.66 0 42.9-19.244 42.9-42.906s-19.24-42.906-42.9-42.906z"/>
        <g fill="#2ED3E9">
            <path d="M20.889 207.234h7.187v-21.19h-6.064v-4.119c3.369-.599 5.69-1.497 7.786-2.845h4.942v28.154h6.289v5.392H20.814v-5.392h.075z"/>
            <path fill-rule="nonzero" d="M45.82 195.703c0-11.606 4.567-17.297 11.38-17.297 6.814 0 11.306 5.69 11.306 17.297 0 11.606-4.567 17.522-11.305 17.522-6.814 0-11.38-5.916-11.38-17.522zm16.472 0c0-9.36-2.172-12.13-5.017-12.13-2.92 0-5.09 2.695-5.09 12.13s2.17 12.355 5.09 12.355c2.77 0 5.017-2.92 5.017-12.355z"/>
        </g>
        <path fill="#666" fill-rule="nonzero" d="M44.697 240.556C20.065 240.556 0 220.488 0 195.853c0-24.636 20.065-44.703 44.697-44.703s44.698 20.067 44.698 44.703c0 24.635-20.066 44.703-44.698 44.703zm0-87.61c-23.659 0-42.9 19.245-42.9 42.907 0 23.661 19.241 42.905 42.9 42.905 23.66 0 42.9-19.244 42.9-42.905 0-23.662-19.24-42.906-42.9-42.906z"/>
        <g fill="#2ED3E9">
            <path d="M123.61 207.234h7.188v-21.19h-6.065v-4.119c3.37-.599 5.69-1.497 7.787-2.845h4.94v28.154h6.29v5.392h-20.215v-5.392h.075zM150.339 207.234h7.187v-21.19h-6.064v-4.119c3.369-.599 5.69-1.497 7.786-2.845h4.941v28.154h6.29v5.392h-20.215v-5.392h.075z"/>
        </g>
        <path fill="#666" fill-rule="nonzero" d="M147.044 240.556c-24.632 0-44.697-20.068-44.697-44.703 0-24.636 20.065-44.703 44.697-44.703s44.698 20.067 44.698 44.703c0 24.635-20.066 44.703-44.698 44.703zm0-87.61c-23.659 0-42.9 19.245-42.9 42.907 0 23.661 19.241 42.905 42.9 42.905 23.66 0 42.9-19.244 42.9-42.905 0-23.662-19.24-42.906-42.9-42.906z"/>
        <g fill="#2ED3E9">
            <path d="M231.872 207.534h7.187v-21.191h-6.064v-4.118c3.369-.6 5.69-1.498 7.786-2.846h4.942v28.155h6.289v5.391h-20.215v-5.391h.075zM256.803 209.106c9.134-8.162 14.525-14.451 14.525-19.618 0-3.37-1.872-5.466-5.016-5.466-2.47 0-4.492 1.572-6.14 3.444l-3.593-3.594c3.07-3.295 6.064-5.092 10.631-5.092 6.364 0 10.557 4.119 10.557 10.334 0 6.065-5.016 12.58-11.156 18.57 1.647-.15 3.894-.375 5.466-.375h7.337v5.616h-22.46v-3.819h-.15z"/>
        </g>
        <path fill="#666" fill-rule="nonzero" d="M255.53 240.556c-24.632 0-44.697-20.068-44.697-44.703 0-24.636 20.065-44.703 44.698-44.703 24.632 0 44.697 20.067 44.697 44.703 0 24.635-19.99 44.703-44.697 44.703zm0-87.61c-23.658 0-42.9 19.245-42.9 42.907 0 23.661 19.242 42.905 42.9 42.905 23.66 0 42.901-19.244 42.901-42.905 0-23.662-19.242-42.906-42.9-42.906z"/>
        <path stroke="#666" stroke-width="4" d="M385.654 29.995h84.753v84.763h-84.753zM470.781 29.995h84.753v84.763h-84.753zM385.654 153.471h84.753v84.763h-84.753zM470.781 153.471h84.753v84.763h-84.753z"/>
        <g stroke="#666" stroke-width="4" transform="translate(402.05 46.918)">
            <ellipse cx="25.83" cy="25.983" rx="25.381" ry="25.384"/>
            <path d="M25.83.3v50.843M25.83 25.684L3.893 38.413"/>
        </g>
        <g stroke="#666" stroke-width="4" transform="translate(487.402 171.217)">
            <ellipse cx="25.605" cy="25.684" rx="25.381" ry="25.384"/>
            <path d="M25.605 0v50.843M25.605 25.459L3.594 38.114"/>
        </g>
    </g>
</svg>
