<svg height="23" viewBox="0 0 575 23" width="575" xmlns="http://www.w3.org/2000/svg"><g fill="none" fill-rule="evenodd"><path d="m570.133 22.55h-287.05c-2.546 0-4.642-2.096-4.642-4.642v-.15c0-2.545 2.096-4.642 4.642-4.642h287.05c2.546 0 4.642 2.097 4.642 4.642v.15c0 2.546-2.096 4.643-4.642 4.643z" fill="#fabf3e"/><g fill="#666"><path d="m18.343 7.575v2.245h-17.969v-2.245h8.161v-2.321h-4.417c-.524.898-1.123 1.647-1.647 2.32-.524-.374-1.647-1.046-2.246-1.271 1.497-1.423 2.77-3.594 3.444-5.84l2.395.598a15.195 15.195 0 0 1 -.823 1.947h3.22v-2.621h2.545v2.62h5.99v2.247h-5.99v2.32h7.337zm-15.648 3.744h13.627v8.162h-2.62v-.974h-8.537v.974h-2.47zm2.471 2.246v2.77h8.535v-2.77zm25.755-7.862h-7.636v-1.947h3.219a25.753 25.753 0 0 0 -1.048-2.77l2.096-.6c.45.824.899 2.022 1.198 2.771l-1.872.599h4.118v1.947zm-6.813 2.696v-1.872h5.99v1.872zm5.99 2.77h-5.99v-1.872h5.99zm8.834-.374c1.198 1.048 2.696 2.32 3.444 3.145l-1.422 1.797-2.097-2.097v5.84h-2.32v-10.407h-2.397v.15c0 3.07-.3 7.563-2.321 10.259-.375-.375-1.273-1.124-1.797-1.423v.3h-3.819v.823h-2.096v-7.038h5.915v5.54c1.572-2.396 1.722-5.84 1.722-8.536v-6.74c2.77-.45 5.84-1.198 7.637-1.947l2.096 1.723c-2.096.748-4.792 1.422-7.337 1.872v2.694h7.861v2.247h-3.07v1.797zm-10.781 3.294h-1.947v2.322h1.947z" fill-rule="nonzero"/><path d="m58.099 8.399c1.348 3.968 3.818 7.188 7.637 8.76-.6.525-1.423 1.573-1.797 2.322-3.669-1.723-6.065-4.718-7.637-8.611-1.123 3.37-3.294 6.589-7.637 8.686-.374-.674-1.123-1.573-1.797-2.097 4.642-2.097 6.589-5.466 7.413-8.986h-7.038v-2.545h7.412c.225-1.947.15-3.744.225-5.467h2.62c0 1.648-.075 3.52-.225 5.467h8.011v2.545h-7.186v-.073z"/><path d="m87.223 9.297c-.823.6-1.722 1.273-2.62 1.872.823 2.396 2.396 4.418 4.792 5.391-.525.45-1.273 1.423-1.648 1.947-2.47-1.198-4.043-3.37-5.09-6.14-.225.15-.45.3-.6.375.6 2.47.075 4.792-.973 5.615-.749.75-1.348.974-2.396.974h-1.647c-.075-.674-.225-1.647-.674-2.321a17.63 17.63 0 0 0 1.872.075c.524 0 .823-.075 1.123-.525.374-.3.599-1.048.599-2.096-2.321 1.572-5.54 3.07-8.236 3.893-.3-.599-.823-1.497-1.273-2.021 3.22-.674 7.113-2.471 9.135-4.193-.075-.225-.15-.525-.3-.75-2.021 1.274-5.016 2.621-7.337 3.295-.3-.524-.749-1.347-1.198-1.872 2.546-.524 5.84-1.797 7.637-2.995-.15-.224-.375-.449-.6-.674-1.796.974-3.743 1.648-5.69 2.172-.224-.45-.823-1.423-1.272-1.872 2.32-.45 4.717-1.273 6.588-2.247h-3.519v-2.096h11.456v2.096h-4.493c-.374.3-.748.674-1.198.974.824.749 1.423 1.572 1.797 2.47 1.423-.973 2.845-2.096 3.819-3.07zm-13.925-2.696h-2.396v-4.567h7.412c-.15-.375-.3-.749-.524-1.048l2.545-.75c.3.525.674 1.199.899 1.798h7.262v4.642h-2.47v-2.396h-12.729v2.321zm26.802-5.391a30.326 30.326 0 0 1 -1.946 4.193v14.003h-2.32v-10.408c-.45.599-.9 1.198-1.348 1.647-.225-.6-.899-1.947-1.273-2.546 1.872-1.872 3.594-4.717 4.642-7.638l2.246.75zm7.188 5.092v10.408c0 1.198-.224 1.872-.973 2.247-.749.374-1.722.524-2.995.524-.075-.75-.449-1.797-.823-2.471h2.021c.3 0 .375-.075.375-.375v-10.408h-2.321a20.608 20.608 0 0 1 -1.947 3.145c-.45-.45-1.423-1.198-1.947-1.572 1.573-1.723 2.77-4.568 3.444-7.339l2.396.525a48.457 48.457 0 0 1 -.973 3.07h7.038l.374-.075 1.722.3a48.587 48.587 0 0 1 -.898 4.717l-2.097-.375c.075-.599.225-1.497.3-2.396h-2.696zm-3.368 3.668c-.599 2.62-1.647 5.167-2.77 6.814-.45-.374-1.497-.973-2.096-1.273 1.198-1.423 2.021-3.744 2.47-5.99zm6.29-.674c1.048 2.097 1.946 4.792 2.245 6.664l-2.32.824c-.225-1.797-1.049-4.642-2.097-6.74l2.171-.748zm21.56 4.644c-.523.823-1.122 1.572-1.87 2.171 2.17.524 4.117 1.048 5.69 1.573l-2.172 1.722c-1.497-.6-3.519-1.198-5.84-1.797-2.32 1.048-5.39 1.572-9.359 1.872a5.927 5.927 0 0 0 -.898-2.097c2.47-.075 4.642-.3 6.364-.749-1.273-.3-2.62-.524-3.968-.749.524-.599 1.048-1.198 1.572-1.946h-3.893v-2.022h5.166c.374-.6.749-1.273 1.048-1.872h-4.941v-5.69h4.417v-1.2h-5.39v-2.096h17.743v2.097h-5.54v1.198h4.867v5.69h-10.931l2.17.525c-.224.45-.448.899-.748 1.348h4.942l.449-1.123 2.32.599c-.074.224-.149.374-.224.599h3.07v2.021h-4.043v-.074zm-10.93-5.766h2.171v-1.872h-2.171zm3.144 5.766c-.15.3-.374.524-.599.748 1.198.225 2.396.45 3.594.75.674-.45 1.348-.9 1.872-1.498zm1.273-9.585h2.321v-1.198h-2.32v1.198zm2.321 3.819v-1.872h-2.32v1.872zm2.321-1.872v1.872h2.47v-1.872zm28.825-5.242v18.346h-2.62v-1.049h-12.28v1.049h-2.545v-18.346zm-2.62 15.051v-12.58h-12.28v12.505h12.28zm-1.947-10.183v7.712h-8.31v-7.712zm-2.47 2.171h-3.595v3.52h3.594v-3.52zm29.348 1.198c-.823.6-1.722 1.273-2.62 1.872.823 2.396 2.396 4.418 4.791 5.391-.524.45-1.272 1.423-1.647 1.947-2.47-1.198-4.043-3.37-5.09-6.14-.226.15-.45.3-.6.375.6 2.47.075 4.792-.973 5.615-.749.75-1.348.974-2.396.974h-1.647c-.075-.674-.225-1.647-.674-2.321.749.075 1.348.075 1.872.075s.823-.075 1.123-.525c.374-.3.599-1.048.599-2.096-2.321 1.572-5.54 3.07-8.236 3.893-.3-.599-.823-1.497-1.273-2.021 3.22-.674 7.113-2.471 9.134-4.193-.074-.225-.15-.525-.299-.75-2.022 1.274-5.016 2.621-7.337 3.295-.3-.524-.749-1.347-1.198-1.872 2.545-.524 5.84-1.797 7.637-2.995-.15-.224-.375-.449-.6-.674-1.796.974-3.743 1.648-5.69 2.172-.224-.45-.823-1.423-1.272-1.872 2.32-.45 4.716-1.273 6.588-2.247h-3.519v-2.096h11.38v2.096h-4.492c-.374.3-.748.674-1.198.974.824.749 1.423 1.572 1.797 2.47 1.423-.973 2.845-2.096 3.819-3.07zm-13.925-2.696h-2.395v-4.567h7.412c-.15-.375-.3-.749-.524-1.048l2.545-.75c.3.525.674 1.199.899 1.798h7.262v4.642h-2.47v-2.396h-12.729zm25.305 5.242v4.867c0 1.198-.224 1.797-.898 2.097-.674.374-1.647.449-3.07.449-.075-.599-.374-1.572-.674-2.171h1.947c.3 0 .374-.075.374-.375v-4.193l-2.096.524-.599-2.321c.749-.15 1.722-.375 2.695-.6v-3.592h-2.394v-2.248h2.395v-3.894h2.396v3.894h2.171v2.247h-2.246v2.995l1.498-.375.3 2.247-1.798.449zm12.878-2.097c-.749 2.471-1.947 4.418-3.519 5.916 1.348.674 2.92 1.198 4.717 1.572-.524.524-1.198 1.573-1.498 2.247-2.021-.524-3.743-1.198-5.24-2.172a19.007 19.007 0 0 1 -5.54 2.172c-.225-.674-.75-1.648-1.199-2.247 1.722-.3 3.295-.823 4.717-1.572-1.123-1.123-2.096-2.396-2.845-3.969l.749-.3h-1.198v-2.245h8.834l.45-.075 1.572.674zm-10.182-.823c-.3-.45-1.198-1.423-1.647-1.723 2.395-1.123 2.695-2.545 2.695-3.968v-2.172h7.187v4.418c0 .6 0 .824.3.824h1.123c.374 0 .823-.075 1.123-.15.075.6.075 1.423.15 2.022-.3.15-.824.15-1.273.15h-1.348c-2.021 0-2.396-.824-2.396-2.92v-2.173h-2.62c0 2.097-.524 4.418-3.294 5.69zm2.096 2.546c.599 1.048 1.497 2.021 2.546 2.845.973-.749 1.722-1.722 2.395-2.845zm20.29 3.968c-1.198 1.423-2.995 2.846-4.567 3.744-.375-.45-1.273-1.273-1.797-1.647 1.572-.674 3.22-1.797 4.118-2.92zm12.129-2.845v1.872h-8.086v5.017h-2.396v-5.017h-7.936v-1.872zm-12.653-9.66h-5.466v-1.872h17.67v1.872h-5.616v1.124h4.567v4.942h-15.423v-4.942h4.268zm-3.295 8.761v-1.872h13.477v1.872zm1.273-4.418h2.022v-1.497h-2.022zm6.364-4.343h-2.096v1.124h2.096v-1.124zm-2.096 4.343h2.096v-1.497h-2.096zm5.54 7.413c1.572.824 3.594 2.097 4.717 3.07l-1.947 1.348c-.898-.973-2.92-2.321-4.567-3.22zm-1.198-8.91v1.497h2.171v-1.497h-2.17zm29.499-1.573h-2.321v12.13c0 1.498-.374 2.172-1.273 2.622-1.048.374-2.545.449-4.642.449-.15-.749-.599-1.947-.973-2.546 1.422.075 3.22.075 3.743.075.45 0 .674-.15.674-.6v-12.129h-13.476v-2.47h18.268v2.47zm-14.15 10.185v1.572h-2.396v-9.435h8.61v7.862h-6.214zm0-5.616v3.295h3.893v-3.296h-3.893zm27.626 4.941a432.667 432.667 0 0 1 -8.01 3.444l-.824-2.62c.749-.3 1.722-.6 2.695-.974l-.374-11.906 2.545-.074.375 11.007c1.048-.45 2.096-.824 3.07-1.273zm8.386 5.69c-.749-1.347-2.321-3.219-3.818-4.941-1.498 2.096-3.52 3.744-6.215 4.942-.374-.524-1.347-1.648-1.946-2.172 6.439-2.47 8.535-7.413 9.284-15.8l2.695.225c-.45 4.194-1.198 7.563-2.47 10.334 1.721 1.722 3.593 3.819 4.491 5.241l-2.021 2.172zm-7.637-10.482c-.524-1.423-1.797-3.52-3.07-5.092l2.172-1.123c1.347 1.497 2.62 3.52 3.22 4.867zm32.718-.599c-.599 2.845-1.722 5.166-3.22 7.038a10.627 10.627 0 0 0 3.595 2.022c-.524.524-1.273 1.423-1.648 2.097-1.422-.524-2.62-1.348-3.668-2.322-1.123 1.049-2.396 1.798-3.744 2.397-.3-.525-.973-1.423-1.497-1.872-2.92.449-5.99.823-8.31 1.198l-.375-2.172c1.423-.15 3.294-.374 5.241-.599.374-.973.599-2.171.824-2.995l2.17.45c-.299.748-.523 1.572-.823 2.246l1.947-.225.075 1.647c1.048-.449 2.021-1.048 2.845-1.797-1.048-1.423-1.872-3.07-2.546-4.942l1.722-.45h-2.021v-2.17h3.369v-2.323h-3.294v-2.245h3.294v-2.92h2.396v2.92h3.593v2.246h-3.593v2.321h1.572l.45-.074zm-15.123-4.418h-3.52v-1.947h3.52v-1.499h2.395v1.5h3.22v1.947h-3.22v1.198h2.995v1.945h-8.235v-2.021h2.92v-1.123zm5.09 9.06h-7.786v-5.016h7.787v5.017zm-5.315 0c.374.824.749 1.872.824 2.546l-2.097.6c-.075-.75-.3-1.798-.674-2.622zm2.995-3.22h-3.22v1.348h3.22zm5.465.225c.45 1.348 1.198 2.62 2.022 3.67.823-1.05 1.497-2.322 1.946-3.67zm14.225-2.097c0 3.22-.15 8.012-1.272 11.157-.375-.374-1.198-.823-1.647-1.048.973-2.92 1.048-7.188 1.048-10.109v-6.888h10.856v1.871h-8.985zm15.948-1.797c-.15 8.312-.3 11.232-.899 12.13-.374.6-.823.824-1.422.9-.524.149-1.273.149-2.097.074-.074-.599-.224-1.497-.599-2.096-.299.823-.598 1.572-.973 2.32-.224-.374-.749-.898-1.273-1.272-.074.45-.224.749-.599.898-.449.225-1.123.225-2.021.225-.075-.45-.225-1.048-.45-1.423h1.124c.15 0 .224-.075.224-.224v-3.37h-1.946v1.273l.599-.075-.225-.674.899-.224c.299.823.599 1.872.599 2.62l-.974.225c0-.15 0-.374-.075-.599-1.198.15-2.395.3-3.519.45l-.224-1.498c.374 0 .823-.075 1.348-.075v-1.423h-1.498v4.643h-1.722v-4.643h-.45v-1.572h.45v-.375h1.722v.375h1.498v-.75h-3.07v-5.39h7.861v5.39h-3.07v.75h3.445v4.118c.973-2.471 1.272-5.766 1.422-9.585h-1.348v-2.17h1.348v-4.494h2.096c0 1.498 0 3.07-.074 4.493h3.518v1.048zm-14.375.15v-.749h-1.198v-1.497h1.198v-.974h1.872v.974h.898v1.497h-.973v.75h-1.797zm.599 2.396h1.422v-.749h-1.422v.75zm1.497 2.022v-.749h-1.422v.749zm2.022-4.418v-.749h-.974v-1.497h.974v-.899h1.871v.899h1.123v1.497h-1.123v.75h-1.871zm1.123 1.647h-1.423v.75h1.423zm0 2.022h-1.423v.749h1.423zm5.54-2.62c-.15 3.818-.524 7.188-1.348 9.883.674.075 1.198.075 1.573.075.3 0 .449-.075.599-.374.374-.524.524-2.92.673-9.585h-1.497zm19.092 5.765c-.3 1.048-.749 2.022-1.498 2.845 2.62.899 5.99.974 10.108.974-.45.524-.899 1.572-1.048 2.396-4.418-.075-8.161-.374-11.081-1.722-1.348.749-3.145 1.423-5.54 1.947-.3-.6-.974-1.573-1.498-2.172 1.947-.3 3.444-.749 4.642-1.198-.823-.599-1.497-1.423-2.096-2.246l1.871-.75h-2.17v-8.385h6.064v-1.199h-7.862v-2.246h17.894v2.172h-7.487v1.198h6.214v8.386zm-5.99-5.092h3.744v-1.273h-3.744v1.274zm0 3.145h3.744v-1.348h-3.744zm.15 1.947c.599.749 1.198 1.273 1.947 1.797a4.012 4.012 0 0 0 1.197-1.797zm9.958-3.295h-3.819v1.348h3.819zm-3.819-3.145v1.273h3.819v-1.273zm31.221 3.819c-2.845 6.215-9.583 8.312-17.37 9.06-.15-.673-.599-1.722-.973-2.32 3.22-.225 6.289-.674 8.835-1.648-.6-.599-1.423-1.273-2.097-1.872-.823.374-1.722.824-2.62 1.123-.3-.524-.974-1.422-1.498-1.872 4.193-1.273 7.038-3.294 8.535-5.316l2.62.599c-.373.45-.823.898-1.272 1.348h3.669l.449-.15zm-2.695-7.488c-2.62 4.718-8.386 7.189-14.3 8.312-.225-.6-.674-1.647-1.123-2.172 2.096-.3 4.117-.823 5.99-1.572-.525-.599-1.274-1.273-2.022-1.872-.6.3-1.198.6-1.872.899-.374-.525-1.123-1.423-1.647-1.723 3.294-1.198 5.69-2.995 7.112-4.567l2.62.599-1.122 1.123h4.267l.45-.075zm-8.91 1.273c-.15.15-.374.3-.599.375.824.599 1.722 1.348 2.321 1.947 1.273-.674 2.47-1.498 3.37-2.397h-5.093v.075zm3.294 7.488c-.374.3-.823.524-1.197.824a21.323 21.323 0 0 1 2.395 2.022 10.796 10.796 0 0 0 3.444-2.846z" fill-rule="nonzero"/><path d="m385.73.386c0 .824-.076 1.947-.15 3.145.299 2.77 1.497 10.409 8.61 13.554-.75.599-1.423 1.422-1.797 2.096-4.493-2.171-6.814-6.14-7.937-9.66-1.123 3.595-3.294 7.264-7.487 9.735-.449-.674-1.198-1.423-2.021-1.947 8.31-4.418 7.861-13.553 7.936-16.997h2.845v.074zm31.67 8.013v2.62h-18.793v-2.619z"/><path d="m428.33 16.186c1.048.374 2.47.45 4.043.45 1.572 0 6.963 0 8.76-.076-.375.6-.749 1.648-.899 2.397h-7.861c-3.743 0-6.214-.525-7.786-2.771-.225 1.423-.524 2.62-.974 3.594-.449-.3-1.497-.823-2.021-1.048.973-2.097 1.198-5.466 1.273-8.986l2.246.15c0 .899-.075 1.797-.075 2.62.3.9.674 1.648 1.123 2.172v-6.14h-3.968v-2.096h3.444v-1.872h-2.845v-2.097h2.845v-1.947h2.246v1.947h2.695v2.097h-2.695v1.872h3.22v2.096h-2.77v2.172h2.62v2.096h-2.62v3.37zm6.589-.524c-2.246 0-2.995-.674-2.995-3.295v-11.232h7.861v7.788h-5.54v3.444c0 .974.15 1.123.973 1.123h2.62c.75 0 .899-.449 1.049-2.62.524.374 1.497.748 2.096.973-.3 2.92-.898 3.894-2.92 3.894h-3.144zm-.674-12.355v3.52h3.22v-3.52zm29.349-2.247v18.346h-2.62v-1.049h-12.28v1.049h-2.545v-18.346zm-2.62 15.051v-12.58h-12.28v12.505h12.28zm-1.947-10.183v7.712h-8.31v-7.712zm-2.471 2.171h-3.594v3.52h3.594zm29.349 1.198c-.824.6-1.722 1.273-2.62 1.872.823 2.396 2.395 4.418 4.791 5.391-.524.45-1.273 1.423-1.647 1.947-2.47-1.198-4.043-3.37-5.091-6.14-.225.15-.45.3-.6.375.6 2.47.076 4.792-.972 5.615-.75.75-1.348.974-2.396.974h-1.647c-.075-.674-.225-1.647-.674-2.321a17.63 17.63 0 0 0 1.872.075c.524 0 .823-.075 1.123-.525.374-.3.599-1.048.599-2.096-2.321 1.572-5.54 3.07-8.236 3.893-.3-.599-.824-1.497-1.273-2.021 3.22-.674 7.113-2.471 9.134-4.193-.075-.225-.15-.525-.3-.75-2.02 1.274-5.016 2.621-7.336 3.295-.3-.524-.75-1.347-1.198-1.872 2.545-.524 5.84-1.797 7.636-2.995-.15-.224-.374-.449-.599-.674-1.797.974-3.743 1.648-5.69 2.172-.224-.45-.823-1.423-1.273-1.872 2.321-.45 4.717-1.273 6.589-2.247h-3.519v-2.096h11.38v2.096h-4.492c-.374.3-.749.674-1.198.974.824.749 1.423 1.572 1.797 2.47 1.423-.973 2.845-2.096 3.818-3.07zm-13.926-2.696h-2.396v-4.567h7.412c-.15-.375-.299-.749-.524-1.048l2.546-.75c.3.525.674 1.199.898 1.798h7.263v4.642h-2.471v-2.396h-12.728zm25.231 5.242v4.867c0 1.198-.224 1.797-.898 2.097-.674.374-1.647.449-3.07.449-.075-.599-.374-1.572-.674-2.171h1.947c.3 0 .374-.075.374-.375v-4.193l-2.096.524-.599-2.321c.749-.15 1.722-.375 2.695-.6v-3.592h-2.396v-2.248h2.396v-3.894h2.396v3.894h2.171v2.247h-2.17v2.995l1.497-.375.299 2.247zm12.953-2.097c-.749 2.471-1.947 4.418-3.52 5.916 1.349.674 2.92 1.198 4.718 1.572-.524.524-1.198 1.573-1.498 2.247-2.021-.524-3.743-1.198-5.24-2.172a19.007 19.007 0 0 1 -5.541 2.172c-.225-.674-.749-1.648-1.198-2.247 1.722-.3 3.294-.823 4.717-1.572-1.123-1.123-2.096-2.396-2.845-3.969l.749-.3h-1.198v-2.245h8.834l.45-.075 1.572.674zm-10.183-.823c-.299-.45-1.197-1.423-1.647-1.723 2.396-1.123 2.696-2.545 2.696-3.968v-2.172h7.187v4.418c0 .6 0 .824.3.824h1.123c.374 0 .823-.075 1.123-.15.075.6.075 1.423.15 2.022-.3.15-.824.15-1.273.15h-1.273c-2.022 0-2.396-.824-2.396-2.92v-2.173h-2.62c-.075 2.097-.674 4.418-3.37 5.69zm2.097 2.546c.599 1.048 1.497 2.021 2.47 2.845.974-.749 1.723-1.722 2.396-2.845zm20.215 3.968c-1.198 1.423-2.995 2.846-4.567 3.744-.375-.45-1.273-1.273-1.797-1.647 1.572-.674 3.22-1.797 4.118-2.92zm12.203-2.845v1.872h-8.085v5.017h-2.396v-5.017h-7.937v-1.872zm-12.653-9.66h-5.465v-1.872h17.67v1.872h-5.616v1.124h4.567v4.942h-15.423v-4.942h4.267zm-3.294 8.761v-1.872h13.477v1.872zm1.273-4.418h2.021v-1.497h-2.021zm6.364-4.343h-2.096v1.124h2.096v-1.124zm-2.096 4.343h2.096v-1.497h-2.096zm5.465 7.413c1.572.824 3.594 2.097 4.717 3.07l-1.947 1.348c-.898-.973-2.92-2.321-4.567-3.22zm-1.123-8.91v1.497h2.171v-1.497zm13.327 8.836v1.722h-1.947v-14.602h5.166v12.88h-3.22zm0-10.933v8.986h1.273v-8.987h-1.273zm16.471 11.157h-4.043c1.348.974 3.145 2.321 4.043 3.145l-1.497 1.498c-.974-.974-2.845-2.471-4.268-3.595l1.198-1.048h-1.198c-.749 2.247-2.47 3.744-6.588 4.643-.15-.6-.749-1.423-1.198-1.947 3.22-.524 4.642-1.423 5.39-2.696h-4.716v-1.947h5.315c.075-.3.075-.599.15-.898h2.171c0 .3-.075.599-.075.898h5.466v1.947zm-10.032-2.77h-2.022v-9.884h3.968c.15-.6.375-1.273.45-1.872l2.62.3c-.225.523-.524 1.047-.749 1.572h4.867v8.236c0 .824-.075 1.198-.6 1.498-.448.225-1.047.3-1.796.3-.15-.45-.374-1.049-.6-1.498l-.373.524c-.3-.374-.899-.973-1.423-1.423v1.648h-1.497v-1.723c-.524.674-1.198 1.348-1.797 1.723-.225-.3-.674-.75-.974-1.049v1.648zm0-8.162v6.365c.748-.375 1.572-1.049 2.17-1.723h-1.796v-1.422h.824c-.075-.375-.3-.824-.525-1.198l1.123-.375c.3.375.525.899.6 1.273l-.75.3h1.124v-1.723c-.749.075-1.498.15-2.171.225a5.87 5.87 0 0 0 -.375-1.048c1.348-.15 2.92-.375 4.043-.674zm7.112 0h-1.497l.823.674c-.673.224-1.422.374-2.17.524v1.946h.972l-.748-.3c.224-.524.524-1.198.674-1.647l1.347.45c-.374.598-.674 1.047-.898 1.497h1.198v1.422h-2.246c.599.45 1.797 1.198 2.096 1.498l-.45.674h.75c.15 0 .224-.075.224-.225v-6.513zm8.535 12.055c0-1.123.824-1.947 1.872-1.947s1.872.824 1.872 1.947c0 1.124-.824 1.947-1.872 1.947-1.048.075-1.872-.823-1.872-1.947zm.45-10.932-.075-2.845h2.995l-.075 2.845-.45 7.563h-1.946l-.45-7.563z" fill-rule="nonzero"/></g></g></svg>