<svg height="56" viewBox="0 0 535 56" width="535" xmlns="http://www.w3.org/2000/svg"><g fill="#fff" fill-rule="evenodd"><path d="m13.865 37.686v-1.816h4.37v-14.378h-3.617v-1.06c1.658-.302 3.014-.908 4.22-1.513h1.96v17.103h3.767v1.816h-10.7z"/><g fill-rule="nonzero"><path d="m20.044 19.524v17.103h3.766v.303h-9.193v-.303h4.373v-15.892h-2.864c1.055-.303 1.96-.757 2.713-1.21h1.206zm1.507-1.513h-3.014c-1.357.757-2.713 1.362-4.672 1.665v2.573h3.617v12.865h-4.37v3.33h12.206v-3.33h-3.767v-17.104z"/><path d="m36.923 37.686v-5.296h-8.59v-1.816l7.233-11.805h3.617v11.956h2.411v1.514h-2.41v5.297h-2.261v.151zm-1.357-16.345c-.452 1.059-1.055 2.118-1.658 3.33l-3.767 6.205h6.782v-4.844c0-.908 0-2.27.15-3.33l.15-1.664h-1.205z"/><path d="m38.43 19.524v11.957h2.411-2.411v5.297h-.754v-5.297h-8.59 8.59v-5.6c0-.908 0-2.119.15-3.178v-2.423h-2.26l.302-.605h2.562v-.152zm-4.07 2.725c-.3.605-.602 1.362-.904 1.967l-3.315 4.995-1.206 1.816v-.303l5.426-8.475zm5.577-4.238h-4.823l-7.534 12.259v2.724h8.59v5.297h3.768v-5.297h2.41v-3.027h-2.41v-11.957zm-3.617 3.632c0 1.211-.151 3.027-.151 4.238v4.087h-4.672l3.165-4.995c.603-1.06 1.055-2.119 1.658-3.33z"/><path d="m27.73 55.546c-14.92 0-27.127-12.26-27.127-27.243 0-14.984 12.207-27.244 27.127-27.244s27.126 12.26 27.126 27.244c0 14.983-12.056 27.243-27.126 27.243zm0-53.124c-14.167 0-25.77 11.654-25.77 25.88 0 14.228 11.603 25.73 25.77 25.73 14.166 0 25.77-11.654 25.77-25.88 0-14.228-11.604-25.73-25.77-25.73z"/><path d="m27.73 1.21c14.92 0 26.976 12.109 26.976 27.093 0 14.983-12.057 27.092-26.976 27.092-14.92 0-26.976-12.109-26.976-27.092 0-14.984 12.056-27.093 26.976-27.093zm0 53.125c14.316 0 25.92-11.654 25.92-26.032 0-14.379-11.604-26.033-25.92-26.033-14.317 0-25.922 11.654-25.922 26.033 0 14.378 11.605 26.032 25.922 26.032zm0-53.578c-15.07 0-27.43 12.26-27.43 27.546s12.208 27.546 27.43 27.546c15.07 0 27.428-12.26 27.428-27.546 0-15.287-12.358-27.546-27.428-27.546zm0 53.124c-14.016 0-25.47-11.503-25.47-25.578 0-14.076 11.454-25.579 25.47-25.579 14.015 0 25.469 11.503 25.469 25.579 0 14.075-11.454 25.578-25.47 25.578z"/></g><path d="m75.955 37.535v-1.815h4.37v-14.38h-3.617v-1.06c1.658-.303 3.015-.908 4.22-1.513h1.96v17.103h3.767v1.816h-10.7v-.15z"/><path d="m82.134 19.373v17.103h3.766v.302h-9.193v-.302h4.373v-15.892h-2.713c1.055-.303 1.96-.757 2.713-1.211h1.055zm1.507-1.514h-3.014c-1.357.757-2.713 1.363-4.672 1.665v2.573h3.617v12.865h-4.37v3.33h12.206v-3.33h-3.767v-17.102z" fill-rule="nonzero"/><path d="m96.752 37.838c-2.26 0-4.22-.757-5.877-2.12l1.055-1.361c1.356 1.21 2.863 1.665 4.37 1.665 2.562 0 4.37-1.817 4.37-4.54 0-2.725-1.657-4.39-4.22-4.39-1.205 0-1.958.303-3.013.908l-1.055-.757.452-8.778h9.343v1.816h-7.233l-.603 6.357 1.205-.606c.754-.302 1.357-.454 2.11-.454 3.467 0 5.426 2.12 5.426 5.752 0 4.54-3.316 6.508-6.33 6.508z"/><path d="m101.424 19.373v.303h-7.234l-.15 1.513-.453 4.39-.15 1.513h-.151l-.301-.151.452-7.568zm-3.768 7.113c1.507 0 4.672.606 4.672 4.995 0 3.935-2.863 5.6-5.576 5.6-1.808 0-3.466-.454-4.822-1.513l.15-.152c1.357.908 2.713 1.362 4.22 1.362 3.014 0 5.124-2.119 5.124-5.297-.15-2.573-1.507-4.39-3.768-4.995zm5.275-8.627h-10.85l-.604 9.838 1.809 1.211c1.206-.757 1.808-1.06 3.014-1.06 2.11 0 3.466 1.363 3.466 3.633 0 2.422-1.507 3.784-3.617 3.784-1.959 0-3.315-.908-4.52-2.12l-1.81 2.574c1.508 1.513 3.618 2.724 6.782 2.724 3.768 0 7.084-2.573 7.084-7.113 0-4.39-2.864-6.508-6.18-6.508-.904 0-1.657.151-2.41.605l.451-4.39h7.385v-3.177z" fill-rule="nonzero"/><g fill-rule="nonzero"><path d="m89.518 55.546c-14.92 0-27.126-12.26-27.126-27.243 0-14.984 12.207-27.244 27.126-27.244 14.92 0 27.127 12.26 27.127 27.244 0 14.983-12.056 27.243-27.127 27.243zm0-53.124c-14.166 0-25.77 11.654-25.77 25.88 0 14.228 11.604 25.73 25.77 25.73 14.167 0 25.77-11.654 25.77-25.88 0-14.228-11.603-25.73-25.77-25.73z"/><path d="m89.518 1.21c14.92 0 26.976 12.109 26.976 27.093 0 14.983-12.056 27.092-26.976 27.092s-26.976-12.109-26.976-27.092c0-14.984 12.058-27.093 26.976-27.093zm0 53.125c14.317 0 25.921-11.654 25.921-26.032 0-14.379-11.604-26.033-25.92-26.033-14.318 0-25.922 11.654-25.922 26.033 0 14.378 11.604 26.032 25.921 26.032zm0-53.578c-15.07 0-27.428 12.26-27.428 27.546s12.207 27.546 27.428 27.546 27.428-12.26 27.428-27.546c0-15.287-12.357-27.546-27.428-27.546zm0 53.124c-14.015 0-25.469-11.503-25.469-25.578 0-14.076 11.454-25.579 25.47-25.579 14.015 0 25.468 11.503 25.468 25.579 0 14.075-11.453 25.578-25.469 25.578z"/></g><g stroke="#fff" stroke-width=".25"><path d="m252.731 35.114h4.37v-12.865h-3.616v-2.573c1.959-.454 3.466-.908 4.671-1.665h3.014v17.103h3.768v3.33h-12.207z"/><path d="m267.801 28.151c0-7.113 2.713-10.443 6.933-10.443 4.069 0 6.781 3.481 6.781 10.443 0 6.963-2.712 10.595-6.781 10.595-4.22 0-6.933-3.632-6.933-10.595zm9.947 0c0-5.751-1.356-7.416-3.014-7.416-1.809 0-3.014 1.665-3.014 7.416 0 5.752 1.356 7.417 3.014 7.417 1.658.15 3.014-1.665 3.014-7.417z" fill-rule="nonzero"/><path d="m267.048 55.395c-14.92 0-26.976-12.109-26.976-27.092 0-14.984 12.056-27.092 26.976-27.092s26.976 12.108 26.976 27.092c0 14.983-12.056 27.092-26.976 27.092zm0-53.125c-14.317 0-25.921 11.654-25.921 26.033 0 14.378 11.604 26.032 25.92 26.032 14.318 0 25.922-11.654 25.922-26.032 0-14.379-11.604-26.033-25.921-26.033z" fill-rule="nonzero"/><path d="m314.821 35.114h4.37v-12.865h-3.616v-2.573c1.959-.454 3.466-.908 4.671-1.665h3.015v17.103h3.767v3.33h-12.207zm16.125 0h4.37v-12.865h-3.767v-2.573c1.96-.454 3.466-.908 4.672-1.665h3.014v17.103h3.768v3.33h-12.207v-3.33z"/><path d="m328.837 55.395c-14.92 0-26.976-12.109-26.976-27.092 0-14.984 12.056-27.092 26.976-27.092s26.976 12.108 26.976 27.092c0 14.983-12.057 27.092-26.976 27.092zm0-53.125c-14.317 0-25.922 11.654-25.922 26.033 0 14.378 11.605 26.032 25.922 26.032s25.92-11.654 25.92-26.032c0-14.379-11.603-26.033-25.92-26.033z" fill-rule="nonzero"/><path d="m380.076 35.416h4.37v-12.865h-3.616v-2.573c1.959-.454 3.466-.908 4.671-1.664h3.014v17.102h3.768v3.33h-12.207zm15.07.908c5.577-4.994 8.741-8.778 8.741-11.956 0-2.12-1.055-3.33-3.014-3.33-1.507 0-2.712.908-3.767 2.119l-2.26-2.27c1.808-1.968 3.616-3.028 6.48-3.028 3.767 0 6.329 2.422 6.329 6.206 0 3.632-3.014 7.719-6.782 11.2 1.055-.151 2.412-.151 3.316-.151h4.37v3.48h-13.563v-2.27z"/><path d="m394.393 55.395c-14.92 0-26.976-12.109-26.976-27.092 0-14.984 12.056-27.092 26.976-27.092s26.976 12.108 26.976 27.092c0 14.983-12.056 27.092-26.976 27.092zm0-53.125c-14.317 0-25.921 11.654-25.921 26.033 0 14.378 11.604 26.032 25.921 26.032s25.921-11.654 25.921-26.032c0-14.379-11.604-26.033-25.921-26.033z" fill-rule="nonzero"/></g><g fill-rule="nonzero"><path d="m163.213 13.773v25.276c0 2.421-.452 3.783-1.96 4.54-1.507.757-3.466.908-6.178.908-.151-1.362-.905-3.632-1.658-4.843 1.658.151 3.617.151 4.069.151.603 0 .753-.302.753-.756v-20.584h-19.591v26.184h-4.823v-30.876zm-6.33 6.508v4.087h-16.879v-4.088h16.88zm-1.356 6.205v11.806h-9.495v2.119h-4.52v-13.925zm-9.495 7.72h4.974v-3.784h-4.974v3.783zm17.18-21.947h-29.387c-.904 0-1.507.606-1.507 1.514v30.724c0 .908.603 1.514 1.507 1.514h4.823c.904 0 1.507-.606 1.507-1.514v-3.632c.15.605.753.908 1.356.908h4.521c.905 0 1.507-.605 1.507-1.514v-.605h4.37c0 .303 0 .454.152.757.602 1.06 1.356 3.178 1.507 4.389.15.757.753 1.362 1.507 1.362 3.164 0 5.274-.151 6.932-1.21 2.411-1.211 2.713-3.633 2.713-5.903v-25.276c0-.757-.603-1.514-1.507-1.514zm-15.672 19.676h1.96v.757h-1.96zm36.771-20.13c.302.606.603 1.363.754 1.968h10.398v3.784h-6.932l3.014.454-.753 1.21h6.63v3.784h-29.688v-3.783h6.781c-.15-.454-.3-.908-.452-1.211l2.713-.454h-7.384v-3.784h10.549c-.15-.454-.302-.757-.302-1.21zm1.96 5.903h-7.536c.302.606.452 1.21.603 1.816h6.33c.15-.756.452-1.362.602-1.816zm7.535 6.508v10.595h-9.495c1.055.454 1.96 1.06 2.713 1.665l-3.014 3.027c-.904-.757-2.562-1.817-4.22-2.573v2.421c0 .908.302 1.06 1.658 1.06h3.918c1.206 0 1.357-.303 1.507-2.422.904.606 2.864 1.362 4.07 1.514-.453 3.783-1.81 4.843-5.125 4.843h-4.973c-4.822 0-5.877-1.21-5.877-4.843v-3.179h3.767l1.357-1.362h-8.741v-10.746zm-17.783 3.935h12.81v-.908h-12.81zm0 3.784h12.81v-.908h-12.81zm17.933 3.481c1.507 1.816 3.316 4.39 3.919 6.206l-4.22 1.967c-.603-1.665-2.11-4.389-3.617-6.357zm-23.359.152 4.07 1.816c-1.056 2.27-2.563 4.692-4.371 6.357l-4.07-2.422c1.96-1.362 3.467-3.633 4.371-5.751zm13.714-25.276h-.301l-4.823.908c-.452.151-.753.303-1.055.757-.15.151-.15.302-.15.454h-8.59c-.905 0-1.507.605-1.507 1.513v4.087h-.151c-.904 0-1.507.605-1.507 1.513v3.784c0 .908.603 1.514 1.507 1.514h2.26v9.535c-.301.151-.452.454-.602.757-.905 1.967-2.412 3.935-3.919 5.297-.301.303-.603.757-.603 1.21 0 .455.302.909.754 1.211l4.069 2.422c.301.151.452.151.753.151.302 0 .754-.15 1.055-.454.754-.756 1.507-1.665 2.261-2.724.753 2.573 2.863 3.481 7.083 3.481h4.973c3.014 0 4.823-.908 5.878-3.027.15.454.301.757.452 1.06.15.454.452.756.753.908.151.151.453.151.603.151s.452 0 .603-.151l4.22-1.968c.753-.303 1.055-1.21.753-1.967-.753-1.968-2.562-4.692-4.069-6.357v-9.99h1.96c.904 0 1.506-.605 1.506-1.513v-3.784c0-.908-.602-1.513-1.507-1.513h-.301v-4.087c0-.908-.603-1.513-1.507-1.513h-9.344c-.15-.454-.301-.908-.452-1.211.15-.151-.452-.454-1.055-.454zm4.07 26.032c.15.152 0 .152 0 .303z"/><g><path d="m465.224 14.53v5.146h-10.399c-.602.908-1.055 1.967-1.657 2.875v3.179l2.562-2.12c3.466 2.725 8.74 6.66 11.152 9.385l-4.22 3.783c-1.96-2.421-6.028-6.054-9.344-8.93v16.65h-5.726v-15.288c-2.864 3.027-6.18 5.6-9.947 7.567-.753-1.362-2.411-3.33-3.315-4.54 5.877-2.724 10.85-7.72 14.015-12.562h-12.81v-5.145zm0-1.514h-29.689c-.904 0-1.507.606-1.507 1.514v5.146c0 .908.603 1.513 1.507 1.513h9.947c-3.165 4.238-7.385 7.72-11.755 9.687-.452.151-.754.605-.904 1.06-.151.453 0 .907.452 1.361 1.055 1.06 2.41 3.027 3.164 4.238.302.454.754.757 1.357.757.301 0 .452 0 .753-.151 2.713-1.363 5.275-3.179 7.686-5.298v11.807c0 .908.603 1.513 1.507 1.513h5.426c.904 0 1.507-.605 1.507-1.513v-13.47c3.315 2.875 5.576 4.994 6.63 6.507.302.303.603.606 1.056.606h.15c.302 0 .754-.151 1.055-.454l4.22-3.784a1.626 1.626 0 0 0 .15-2.119c-2.26-2.573-6.48-5.903-9.946-8.627l-1.356-1.06c-.302-.15-.603-.302-.904-.302-.151 0-.302 0-.453.151.151-.302.453-.605.603-1.06h9.495c.904 0 1.507-.605 1.507-1.513v-5.146c-.151-.756-.905-1.362-1.658-1.362z"/><path d="m498.831 13.773v25.276c0 2.421-.452 3.783-1.96 4.54-1.506.757-3.465.908-6.178.908-.15-1.362-.904-3.632-1.658-4.843 1.658.151 3.617.151 4.07.151.602 0 .753-.302.753-.756v-20.584h-19.743v26.184h-4.822v-30.876zm-6.33 6.508v4.087h-16.878v-4.088h16.877zm-1.356 6.205v11.806h-9.494v2.119h-4.521v-13.925zm-9.344 7.72h4.974v-3.784h-4.975v3.783zm17.03-21.947h-29.387c-.905 0-1.507.606-1.507 1.514v30.724c0 .908.602 1.514 1.507 1.514h4.822c.904 0 1.507-.606 1.507-1.514v-3.632c.15.605.754.908 1.357.908h4.52c.905 0 1.508-.605 1.508-1.514v-.605h4.37c0 .303 0 .454.15.757.604 1.06 1.357 3.178 1.508 4.389.15.757.753 1.362 1.507 1.362 3.165 0 5.275-.151 6.932-1.21 2.412-1.211 2.713-3.633 2.713-5.903v-25.276c0-.757-.603-1.514-1.507-1.514zm-15.523 19.676h1.96v.757h-1.96zm36.622-20.13c.301.606.602 1.363.753 1.968h10.399v3.784h-6.933l3.014.454-.753 1.21h6.63v3.784h-29.688v-3.783h6.782c-.15-.454-.302-.908-.452-1.211l2.712-.454h-7.384v-3.784h10.55c-.152-.454-.302-.757-.302-1.21zm1.959 5.903h-7.535c.3.606.452 1.21.602 1.816h6.33c.301-.756.452-1.362.603-1.816zm7.535 6.508v10.595h-9.494c1.055.454 1.959 1.06 2.712 1.665l-3.014 3.027c-.904-.757-2.562-1.817-4.22-2.573v2.421c0 .908.302 1.06 1.658 1.06h3.919c1.205 0 1.356-.303 1.507-2.422.904.606 2.863 1.362 4.069 1.514-.453 3.783-1.809 4.843-5.124 4.843h-4.974c-4.822 0-5.877-1.21-5.877-4.843v-3.179h3.768l1.356-1.362h-8.741v-10.746zm-17.783 3.935h12.81v-.908h-12.81zm0 3.784h12.81v-.908h-12.81zm17.934 3.481c1.507 1.816 3.315 4.39 3.918 6.206l-4.22 1.967c-.603-1.665-2.11-4.389-3.617-6.357zm-23.209.152 4.07 1.816c-1.056 2.27-2.563 4.692-4.371 6.357l-4.07-2.422c1.81-1.362 3.467-3.633 4.371-5.751zm13.564-25.276h-.302l-4.822.908c-.452.151-.754.303-1.055.757-.151.151-.151.302-.151.454h-8.59c-.904 0-1.507.605-1.507 1.513v4.087h-.15c-.905 0-1.508.605-1.508 1.513v3.784c0 .908.603 1.514 1.507 1.514h2.26v9.535c-.3.151-.451.454-.602.757-.904 1.967-2.411 3.935-3.918 5.297-.302.303-.603.757-.603 1.21 0 .455.301.909.753 1.211l4.07 2.422c.3.151.451.151.753.151.301 0 .753-.15 1.055-.454.753-.756 1.507-1.665 2.26-2.724.754 2.573 2.864 3.481 7.083 3.481h4.974c3.014 0 4.822-.908 5.877-3.027.15.454.301.757.452 1.06.15.454.452.756.754.908.15.151.452.151.603.151.15 0 .452 0 .602-.151l4.22-1.968c.754-.303 1.055-1.21.754-1.967-.754-1.968-2.562-4.692-4.07-6.357v-9.99h1.96c.904 0 1.507-.605 1.507-1.513v-3.784c0-.908-.603-1.513-1.507-1.513h-.302v-4.087c0-.908-.602-1.513-1.507-1.513h-9.343c-.151-.454-.302-.908-.452-1.211.15-.151-.453-.454-1.055-.454zm4.22 26.032c.15.152 0 .152 0 .303v.303c-.151-.152 0-.303 0-.606z"/></g></g></g></svg>